<?xml version="1.0" encoding="utf-8"?>
<!-- Generator: Adobe Illustrator 25.1.0, SVG Export Plug-In . SVG Version: 6.00 Build 0)  -->
<svg version="1.1" id="Layer_1" xmlns="http://www.w3.org/2000/svg" xmlns:xlink="http://www.w3.org/1999/xlink" x="0px" y="0px"
	 width="100px" height="37.42088px" viewBox="0 0 100 37.42088" style="enable-background:new 0 0 100 37.42088;"
	 xml:space="preserve">
<g>
	<path id="o" d="M15.06521,7.07334c0,4.24029-3.12632,7.07334-7.50318,7.07334H7.50318C3.22442,14.14668,0,11.31362,0,7.07334
		C0,2.85293,3.12632,0,7.50318,0h0.05886C11.93889,0,15.06521,2.85293,15.06521,7.07334z M10.68836,7.07334
		c0-1.77795-1.27015-3.06772-3.12632-3.06772H7.50318c-1.85617,0-3.12632,1.28977-3.12632,3.06772
		c0,1.79783,1.27015,3.06772,3.12632,3.06772h0.05886C9.41821,10.14106,10.68836,8.87117,10.68836,7.07334z"/>
	<path id="p" d="M29.87536,5.51018c0,2.91153-2.30537,5.27577-5.80293,5.27577h-3.14594v3.12632H16.6276V0.23467h7.44483
		C27.56999,0.23467,29.87536,2.5989,29.87536,5.51018z M25.57699,5.51018c0-0.84005-0.68412-1.50456-1.50456-1.50456h-3.14594
		v3.00912h3.14594C24.89286,7.01474,25.57699,6.35049,25.57699,5.51018z"/>
	<path id="e" d="M35.73663,3.94702v1.36799h5.51018v3.55616h-5.51018v1.30913h6.83867v3.73197H31.43775V0.23467h11.13756v3.71235
		H35.73663z"/>
	<path id="n" d="M58.26527,0.23467v13.6776h-4.22041l-5.29539-7.19054v7.19054h-4.22041V0.23467h4.22041l5.29539,7.01474V0.23467
		H58.26527z"/>
	<path id="underscore" d="M0.39085,33.37601h12.11444v4.04486H0.39085V33.37601z"/>
	<path id="f" d="M18.75742,22.23846v1.8758h5.51018v3.71235h-5.51018v4.37685h-4.29889V18.52611h11.13756v3.71235H18.75742z"/>
	<path id="u1" d="M27.54933,25.97042v-7.44431h4.29889v7.05346c0,1.44621,0.64488,2.71636,2.4422,2.71636h0.05886
		c1.81693,0,2.4422-1.27015,2.4422-2.71636v-7.05346h4.29889v7.44431c0,4.24003-2.55992,6.46744-6.74109,6.46744h-0.05886
		C30.10925,32.43786,27.54933,30.21045,27.54933,25.97042z"/>
	<path id="t" d="M56.44781,22.2968H51.8949v9.90665h-4.29837V22.2968h-4.55292v-3.77069h13.40421V22.2968z"/>
	<path id="u2" d="M58.40106,25.97042v-7.44431h4.29889v7.05346c0,1.44621,0.64489,2.71636,2.4422,2.71636H65.201
		c1.81693,0,2.4422-1.27015,2.4422-2.71636v-7.05346h4.29889v7.44431c0,4.24003-2.55992,6.46744-6.74109,6.46744h-0.05886
		C60.96098,32.43786,58.40106,30.21045,58.40106,25.97042z"/>
	<path id="r" d="M73.89585,18.52611h7.44482c3.49756,0,5.80293,2.36423,5.80293,5.27525c0,1.77821-0.85967,3.36125-2.34461,4.31851
		l2.69623,4.08358h-4.9825l-1.85617-3.12632h-2.4422v3.12632h-4.3185V18.52611z M81.34068,25.30592
		c0.82043,0,1.50456-0.66399,1.50456-1.50456c0-0.84005-0.68413-1.50456-1.50456-1.50456h-3.12632v3.00912H81.34068z"/>
	<path id="e2" d="M93.16133,22.23846v1.36773h5.51018v3.55642h-5.51018v1.30887H100v3.73197H88.86244V18.52611H100v3.71235H93.16133
		z"/>
</g>
</svg>
